<?xml version="1.0" encoding="UTF-8" standalone="no"?>
<!-- Created with Inkscape (http://www.inkscape.org/) -->

<svg
   version="1.1"
   id="svg182"
   width="317.5mm"
   height="87.5mm"
   viewBox="0 0 1200 330.70866"
   sodipodi:docname="EHEW.svg"
   inkscape:version="1.2 (dc2aedaf03, 2022-05-15)"
   xmlns:inkscape="http://www.inkscape.org/namespaces/inkscape"
   xmlns:sodipodi="http://sodipodi.sourceforge.net/DTD/sodipodi-0.dtd"
   xmlns="http://www.w3.org/2000/svg"
   xmlns:svg="http://www.w3.org/2000/svg">
  <defs
     id="defs186" />
  <sodipodi:namedview
     id="namedview184"
     pagecolor="#ffffff"
     bordercolor="#000000"
     borderopacity="0.25"
     inkscape:showpageshadow="2"
     inkscape:pageopacity="0.0"
     inkscape:pagecheckerboard="0"
     inkscape:deskcolor="#d1d1d1"
     showgrid="false"
     inkscape:zoom="0.67833333"
     inkscape:cx="433.41524"
     inkscape:cy="196.0688"
     inkscape:window-width="1920"
     inkscape:window-height="1017"
     inkscape:window-x="-8"
     inkscape:window-y="-8"
     inkscape:window-maximized="1"
     inkscape:current-layer="g188"
     inkscape:document-units="mm" />
  <g
     inkscape:groupmode="layer"
     inkscape:label="Image"
     id="g188">
    <path
       style="fill:#4c6cf4;fill-opacity:1;stroke:#ffffff;stroke-width:3.77952762;stroke-dasharray:none"
       d="m 214,123 c 0,-5.66667 -0.38095,-7.38095 -2,-9 -1.61905,-1.61905 -3.33333,-2 -9,-2 h -7 v -6 -6 h 7 c 5.66667,0 7.38095,-0.38095 9,-2 1.61905,-1.61905 2,-3.33333 2,-9 v -7 h 6 6 v 7 c 0,5.66667 0.38095,7.38095 2,9 1.61905,1.61905 3.33333,2 9,2 h 7 v 6 6 h -6.80887 c -9.54801,0 -10.54843,0.94376 -11.02603,10.40154 L 225.7814,130 H 219.8907 214 Z"
       id="path422"
       sodipodi:nodetypes="ssscccssscccssscccsscccs" />
    <path
       style="fill:#4c6cf4;fill-opacity:1;stroke:#ffffff;stroke-width:3.77952762;stroke-dasharray:none"
       d="m 209.35911,138.12943 c -4.11918,-2.58005 -4.54285,-3.38785 -5.25616,-10.02185 L 203.5,122.5 197.90359,122 C 188.88751,121.19448 186,117.31328 186,106 c 0,-11.31328 2.88751,-15.19448 11.90359,-16 l 5.59641,-0.5 0.53796,-5 c 1.09882,-10.21278 4.88862,-12.87484 17.57751,-12.34696 7.54071,0.31372 8.6044,0.61158 11.10121,3.10873 2.18044,2.18073 2.8689,3.969 3.27236,8.5 L 236.5,89.5 l 5.73823,0.51096 c 4.53136,0.4035 6.3191,1.09182 8.5,3.27273 C 253.38401,95.92946 253.5,96.46355 253.5,106 c 0,9.53645 -0.11599,10.07054 -2.76177,12.71631 -2.1809,2.18091 -3.96864,2.86923 -8.5,3.27273 L 236.5,122.5 l -0.51096,5.73823 c -0.4034,4.53031 -1.0921,6.3196 -3.27166,8.5 -2.5308,2.53179 -3.48753,2.78661 -11.48904,3.06012 -7.28745,0.24909 -9.24684,-0.0264 -11.86923,-1.66895 z m 18.43293,-14.79185 c 0.17008,-4.17111 0.81395,-7.59559 1.54169,-8.19956 0.68731,-0.57041 4.38089,-1.17231 8.20796,-1.33755 L 244.5,113.5 V 106 98.5 l -7.16245,-0.29204 c -4.17111,-0.17008 -7.59559,-0.81395 -8.19956,-1.54169 -0.57041,-0.68731 -1.17231,-4.38089 -1.33755,-8.20796 L 227.5,81.5 220.25,81.20619 213,80.91238 v 6.85268 c 0,9.3067 -0.76546,10.10687 -10,10.45345 L 195.5,98.5 v 7.5 7.5 l 7.5,0.28149 c 9.23454,0.34658 10,1.14675 10,10.45345 v 6.85268 l 7.25,-0.29381 7.25,-0.29381 0.29204,-7.16245 z"
       id="path420"
       sodipodi:nodetypes="sscssscsssscssssscsssssssscccssscccsscccssccccs" />
    <path
       style="fill:#4c6cf4;fill-opacity:1;stroke:#ffffff;stroke-width:3.77952762;stroke-dasharray:none"
       d="M 213.48519,181.90429 C 197.88813,173.70222 178.80657,159.83181 167.6764,148.60583 148.50141,129.26579 138.57734,108.48012 137.30796,85 c -0.96337,-17.81963 2.93661,-29.15965 13.49042,-39.22628 11.89561,-11.34648 26.29109,-15.24564 41.58196,-11.26287 7.22584,1.88209 13.2055,5.34399 20.07504,11.62236 7.03472,6.42934 9.11289,6.39376 15.77679,-0.27014 3.23077,-3.23078 7.94425,-6.47764 12.70238,-8.75 7.21248,-3.4445 8.05775,-3.61307 18.11731,-3.61307 10.20795,0 10.80322,0.12423 18.26386,3.81147 9.92342,4.90442 16.45838,11.42914 21.34012,21.30668 3.67165,7.42908 3.78884,8.00358 4.13337,20.26385 0.30773,10.95095 0.0234,13.90228 -2.15232,22.33885 -1.37879,5.34646 -3.90358,12.64733 -5.61064,16.22415 -10.55339,22.11265 -31.25672,42.62091 -60.71894,60.14684 -11.8894,7.07254 -14.53256,7.61997 -20.82212,4.31245 z m 19.729,-43.80436 c 2.77828,-2.4824 3.32065,-3.74261 3.76578,-8.75 L 237.5,123.5 l 5.84993,-0.52003 c 5.00739,-0.44513 6.2676,-0.9875 8.75,-3.76578 C 254.88901,116.09267 255,115.58693 255,106 c 0,-9.58693 -0.11099,-10.09267 -2.90007,-13.21419 -2.4824,-2.77828 -3.74261,-3.32065 -8.75,-3.76578 L 237.5,88.5 236.97997,82.65007 c -0.44513,-5.00739 -0.9875,-6.2676 -3.76578,-8.75 C 230.09267,71.11099 229.58693,71 220,71 c -9.58693,0 -10.09267,0.11099 -13.21419,2.90007 -2.77828,2.4824 -3.32065,3.74261 -3.76578,8.75 L 202.5,88.5 l -5.73823,0.51096 c -4.53136,0.4035 -6.3191,1.09182 -8.5,3.27273 C 185.58223,94.96323 185.5,95.37161 185.5,106 c 0,10.62839 0.0822,11.03677 2.76177,13.71631 2.1809,2.18091 3.96864,2.86923 8.5,3.27273 L 202.5,123.5 l 0.52003,5.84993 c 0.44513,5.00739 0.9875,6.2676 3.76578,8.75 C 209.90733,140.88901 210.41307,141 220,141 c 9.58693,0 10.09267,-0.11099 13.21419,-2.90007 z"
       id="path418"
       sodipodi:nodetypes="sssssssssssssssssscssssscssssscssssscssss" />
    <path
       style="fill:#4c6cf4;fill-opacity:1;stroke:#ffffff;stroke-width:3.77952762;stroke-dasharray:none"
       d="m 213,192.64445 c -4.56184,-1.65238 -20.70294,-11.55019 -31.20518,-19.13518 -12.31327,-8.89296 -30.28773,-27.24397 -37.56463,-38.35157 -17.87882,-27.29059 -22.20971,-59.73819 -10.99365,-82.36584 3.96551,-8.00016 15.08509,-19.21053 23.35653,-23.54726 18.95981,-9.94064 41.28439,-7.68869 58.33101,5.88403 l 5.12254,4.07862 5.22669,-3.99194 c 18.20005,-13.90049 39.21448,-15.89934 58.82336,-5.59517 13.38332,7.03274 23.91228,20.81649 27.49396,35.99314 2.15904,9.14849 1.4047,27.65852 -1.58476,38.88672 -8.11517,30.48 -32.1744,58.33795 -70.17372,81.2535 -13.97925,8.4302 -19.01338,9.72305 -26.83215,6.89095 z m 17.80532,-11.20159 c 23.74011,-13.0492 45.53763,-31.70557 57.18328,-48.94286 11.68104,-17.28967 16.19498,-31.89905 16.22121,-52.5 0.0227,-17.82992 -5.76283,-30.25813 -18.42483,-39.57937 -15.36848,-11.31364 -38.26189,-11.33667 -53.43949,-0.0538 -3.21502,2.39003 -6.85501,5.53522 -8.08888,6.98932 -1.23386,1.4541 -2.97371,2.64382 -3.86634,2.64382 -0.89263,0 -4.3741,-2.54708 -7.73662,-5.66017 -3.36251,-3.11309 -9.04766,-7.05059 -12.63365,-8.75 C 193.86,32.6706 192.83743,32.5 181.5,32.5 c -11.72734,0 -12.17041,0.0819 -19.5,3.60511 -9.68,4.653 -16.86483,11.81908 -21.73996,21.68324 -3.51553,7.1132 -3.69467,7.97703 -4.08487,19.69775 -0.29761,8.93931 0.0508,14.52662 1.28666,20.6361 6.20316,30.66448 28.35388,57.28465 66.78258,80.25761 13.63971,8.15392 16.6646,8.50275 26.56091,3.06305 z"
       id="path416"
       sodipodi:nodetypes="sssssscssssssssssssssssssscss" />
    <path
       style="fill:#4c6cf4;fill-opacity:1;stroke:#ffffff;stroke-width:3.77952762;stroke-dasharray:none"
       d="m 265,261.46788 c 0,-7.68406 0.46705,-12.60587 1.39968,-14.75 0.76982,-1.76983 14.64706,-16.41729 30.83831,-32.5499 26.22468,-26.12972 29.74572,-29.29578 32.25142,-29 3.7242,0.4396 6.98312,4.76784 5.97693,7.93806 -0.40959,1.29051 -5.85708,7.56887 -12.10552,13.95191 -11.56869,11.81787 -12.92877,14.23124 -9.78939,17.37062 3.34606,3.34607 5.67298,1.92608 19.13753,-11.67857 14.56439,-14.71594 15.8924,-17.2417 13.25488,-25.20968 -0.9176,-2.77211 -1.4466,-11.49857 -1.6853,-27.8011 l -0.34789,-23.76078 2.48922,-2.48922 c 3.02979,-3.02979 4.5236,-3.10813 7.94527,-0.41664 L 357,135.14516 v 40.97708 c 0,35.98289 -0.19957,41.36713 -1.63742,44.17742 -0.90059,1.76019 -9.67559,11.32587 -19.5,21.25707 L 318,259.61345 V 266.30673 273 H 291.5 265 Z"
       id="path410"
       sodipodi:nodetypes="sssssssssscsscssscccccs" />
    <path
       style="fill:#4c6cf4;fill-opacity:1;stroke:#ffffff;stroke-width:3.77952762;stroke-dasharray:none"
       d="M 255,295.5 V 284 H 291.5 328 V 295.5 307 H 291.5 255 Z"
       id="path408"
       sodipodi:nodetypes="ccccccccc" />
    <path
       style="fill:#4c6cf4;fill-opacity:1;stroke:#ffffff;stroke-width:3.77952762;stroke-dasharray:none"
       d="m 251,315.72135 c -4.59854,-2.29775 -5.99673,-6.96038 -5.99845,-20.00347 -0.002,-13.98924 1.21956,-17.90194 6.35243,-20.34964 l 3.46453,-1.65212 0.36341,-14.10806 c 0.31178,-12.10358 0.66931,-14.67638 2.51644,-18.10806 2.72905,-5.07014 61.83718,-64.02045 65.61674,-65.44154 1.5483,-0.58215 4.5858,-1.05846 6.75,-1.05846 H 334 l 0.022,-19.75 c 0.019,-17.09511 0.2722,-20.301 1.88347,-23.84893 2.02456,-4.45794 6.27719,-8.01946 11.29344,-9.45811 6.49795,-1.86358 15.60052,2.93934 18.4371,9.72823 1.83913,4.40164 1.99368,83.41624 0.17548,89.71279 -0.95799,3.3176 -4.74055,7.71535 -19.5,22.67143 L 328,262.61083 v 5.50937 c 0,5.32817 0.11694,5.56514 3.55528,7.20477 5.23332,2.4956 6.44502,6.33069 6.44317,20.39291 -0.002,13.04309 -1.39991,17.70572 -5.99845,20.00347 -1.86748,0.93311 -12.11436,1.24917 -40.5,1.24917 -28.38564,0 -38.63252,-0.31606 -40.5,-1.24917 z M 329,295.5 V 283 H 291.5 254 v 12.5 12.5 h 37.5 37.5 z m -10,-28.26072 v -6.76071 l 17.54754,-17.48929 c 9.65115,-9.6191 18.53865,-19.06428 19.75,-20.98928 2.17871,-3.46226 2.20246,-3.94931 2.20246,-45.16873 v -41.66872 l -2.42431,-2.58128 c -2.95789,-3.14938 -6.84309,-3.33868 -10.44083,-0.50869 L 343,134.14516 v 24.04321 c 0,20.01299 0.2828,24.83943 1.68708,28.79329 2.69988,7.60169 0.82309,11.04421 -14.18179,26.01306 -10.43471,10.40965 -12.79648,12.31137 -14.19453,11.4295 -4.68661,-2.95623 -4.26346,-3.79439 8.47462,-16.78612 C 335.38352,196.82892 337,194.74675 337,191.90458 337,187.33726 333.65177,184 329.06944,184 c -3.36482,0 -5.37852,1.80334 -33.22047,29.75 -16.30118,16.3625 -30.13587,30.73292 -30.74375,31.93426 -0.63912,1.2631 -1.10522,7.69441 -1.10522,15.25 L 264,274 h 27.5 27.5 z"
       id="path406"
       sodipodi:nodetypes="scscsssscsssssscsscssscccccccccccssscsscsssssssssscccc" />
    <path
       style="fill:#4c6cf4;fill-opacity:1;stroke:#ffffff;stroke-width:3.77952762;stroke-dasharray:none"
       d="M 122.66667,272.33333 C 122.3,271.96667 122,268.69948 122,265.07291 v -6.59375 l -18.10185,-17.98958 c -9.95602,-9.89427 -18.73102,-19.43763 -19.5,-21.20746 C 83.2774,216.70269 83,208.11254 83,175.98666 v -40.07757 l 2.45455,-2.45454 c 3.00095,-3.00095 4.49603,-3.06786 7.94421,-0.35553 l 2.66847,2.09902 -0.33278,24.15098 c -0.21995,15.96294 -0.76747,25.53803 -1.61493,28.24213 -2.4346,7.76843 -0.59768,11.21395 13.67961,25.65885 9.71725,9.83132 13.1971,12.75 15.20146,12.75 3.42204,0 4.99941,-1.7148 4.99941,-5.43498 0,-2.53752 -1.90545,-4.94541 -11.625,-14.69035 -12.6072,-12.64013 -13.9516,-15.36985 -9.38922,-19.06424 4.95259,-4.01037 5.68494,-3.47518 34.81115,25.43957 15.09712,14.9875 28.7439,29.2506 30.32618,31.69578 2.77243,4.28435 2.87689,4.89255 2.87689,16.75 V 273 h -25.83333 c -14.20834,0 -26.13334,-0.3 -26.5,-0.66667 z"
       id="path404"
       sodipodi:nodetypes="sscssscsscsssssssssscss" />
    <path
       style="fill:#4c6cf4;fill-opacity:1;stroke:#ffffff;stroke-width:3.77952762;stroke-dasharray:none"
       d="m 112.43025,305.67882 c -0.27884,-0.72665 -0.37722,-5.78915 -0.21862,-11.25 L 112.5,284.5 148.75,284.23753 185,283.97505 V 295.48753 307 h -36.03138 c -28.93793,0 -36.1312,-0.2601 -36.53837,-1.32118 z"
       id="path402"
       sodipodi:nodetypes="sscccccss" />
    <path
       style="fill:#4c6cf4;fill-opacity:1;stroke:#ffffff;stroke-width:3.77952762;stroke-dasharray:none"
       d="m 107.77514,315.4412 c -1.49867,-0.8133 -3.18617,-2.3407 -3.75,-3.39422 C 103.45922,310.98954 103,303.59089 103,295.53056 c 0,-16.11172 0.64813,-18.31374 6.04875,-20.55075 C 111.82371,273.83038 112,273.42048 112,268.11765 v -5.63971 L 94.92993,245.48897 C 85.54139,236.14504 76.87889,226.7 75.67993,224.5 c -2.12483,-3.8989 -2.18782,-5.04895 -2.492,-45.5 -0.20492,-27.25158 0.0524,-42.74102 0.74958,-45.1146 2.18366,-7.43476 8.0199,-12.02011 15.44199,-12.13232 5.25459,-0.0794 9.76821,2.26386 13.31881,6.91462 l 2.80169,3.6698 0.5,21.08125 0.5,21.08125 5.26084,0.64209 c 2.89346,0.35316 6.49346,1.41878 8,2.36806 5.37245,3.38522 60.86035,59.90668 62.81971,63.98985 1.55129,3.23278 1.98132,6.71933 2.24203,18.17748 l 0.32259,14.17748 2.90592,1.01301 c 1.59826,0.55715 3.83203,2.50229 4.96395,4.32252 1.86918,3.00583 2.03173,4.62484 1.77149,17.64403 L 194.5,311.16905 191.23422,314.08452 187.96845,317 149.23422,316.96 c -32.23259,-0.0333 -39.19159,-0.28824 -41.45908,-1.51876 z M 186,295.5 V 283 H 148.5 111 v 12.5 12.5 h 37.5 37.5 z m -10,-35.34996 c 0,-13.70565 -0.0301,-13.8906 -2.8902,-17.75 C 171.52019,240.25502 157.88884,226.2375 142.81791,211.25 115.81185,184.39345 115.3565,184 111.28069,184 c -3.27661,0 -4.56599,0.54724 -6.20811,2.63486 -3.87339,4.92421 -3.00179,6.66831 9.92742,19.86514 12.70702,12.97004 14.10256,15.58489 9.44917,17.70511 -2.43073,1.10752 -3.11669,0.60037 -14.56955,-10.77144 -6.61029,-6.56352 -12.66242,-13.14882 -13.44917,-14.63401 -1.87141,-3.53276 -1.81854,-9.78926 0.12374,-14.64348 1.28052,-3.20035 1.50062,-7.85623 1.25,-26.44184 -0.30075,-22.30273 -0.33157,-22.58667 -2.7285,-25.13594 -2.95827,-3.14629 -6.84465,-3.33457 -10.44083,-0.50582 L 82,134.14516 v 41.99316 c 0,28.92714 0.34715,42.67279 1.11572,44.17742 0.61364,1.20134 9.38864,10.5362 19.5,20.74413 L 121,259.61974 v 6.52346 c 0,3.58791 0.3,6.82347 0.66667,7.19013 C 122.03333,273.7 134.40833,274 149.16667,274 H 176 Z"
       id="path400"
       sodipodi:nodetypes="ssssscsssccscccsssscssscccssscccccccccssssssssssssscssscssscs" />
    <path
       style="fill:none;stroke:none"
       d="m 192.6,314.6 3.4,-3.4 v -15.46514 c 0,-14.16891 -0.17503,-15.68766 -2.0883,-18.11998 -1.14856,-1.46016 -3.39856,-3.3324 -5,-4.16054 L 186,271.94864 185.978,258.72432 c -0.0185,-11.12777 -0.34422,-13.93477 -2.05464,-17.70556 -1.46448,-3.2286 -9.91419,-12.41753 -30.22804,-32.87255 C 138.18791,192.53099 123.4994,178.46005 121.05422,176.87745 117.95186,174.86951 115.33882,174 112.40689,174 h -4.20155 l -0.38459,-20.25 c -0.42192,-22.21479 -0.8598,-24.08073 -6.8299,-29.10424 -8.2756,-6.96346 -19.69051,-5.37375 -26.3989,3.67646 -2.03728,2.74848 -2.09927,3.96998 -2.37218,46.74436 -0.27115,42.49978 -0.21333,44.07762 1.78543,48.72388 1.55141,3.60633 6.41352,9.14428 19.53023,22.24493 L 111,263.47857 v 4.5755 c 0,4.25812 -0.24661,4.69311 -3.55528,6.2709 C 102.13951,276.85485 101,280.59887 101,295.5 c 0,13.62986 1.0821,18.04324 5.11687,20.86931 2.05907,1.44222 6.99474,1.63069 42.70564,1.63069 H 189.2 Z m 142.63422,0.48448 3.26578,-2.91553 0.28484,-15.33447 c 0.26159,-14.08275 0.1147,-15.60839 -1.79948,-18.69002 -1.14638,-1.84555 -3.41206,-3.85671 -5.03485,-4.46924 C 329.2894,272.67076 329,272.12316 329,268.09218 c 0,-4.45583 0.0543,-4.52393 17.95373,-22.53076 11.21156,-11.2788 18.5344,-19.4576 19.5,-21.7793 C 367.76879,220.62017 368,213.50222 368,176.18 v -43.88423 l -2.2738,-3.37409 c -6.22449,-9.23653 -17.79136,-11.37787 -26.11078,-4.83381 C 334.07584,128.4453 333.54199,130.77847 333,153 l -0.5,20.5 -2.5,0.26969 c -9.40237,1.0143 -8.07587,-0.0401 -40.32417,32.05374 C 272.72254,222.69554 257.88274,238.3 256.6985,240.5 c -1.84633,3.42997 -2.20483,6.00432 -2.51565,18.06467 l -0.36249,14.06466 -2.86069,1.07979 c -1.57339,0.59389 -3.79865,2.58979 -4.94503,4.43534 -1.91418,3.08163 -2.06107,4.60727 -1.79948,18.69002 l 0.28484,15.33447 3.26578,2.91553 L 251.03155,318 H 291.5 331.96845 Z M 562,228.5 c 0,-2.117 -0.46453,-2.5 -3.03212,-2.5 -1.66766,0 -4.56159,-0.63905 -6.43094,-1.42012 -4.98022,-2.08087 -5.52493,-5.36311 -5.53136,-33.32988 L 547,167 h 30.08704 30.08704 l -0.33704,25.92839 c -0.3177,24.44042 -0.45688,26.09031 -2.42524,28.75 -1.57014,2.12159 -3.36881,3.05295 -7.25,3.7541 -4.47621,0.80863 -5.1618,1.24271 -5.1618,3.2681 v 2.33561 l 23.75,-0.2681 23.75,-0.2681 0.31955,-2.25 c 0.27246,-1.91841 -0.13756,-2.25 -2.78212,-2.25 -5.25646,0 -9.64349,-2.43117 -10.90211,-6.04165 -1.53422,-4.40108 -1.5991,-107.3295 -0.0704,-111.71469 1.12277,-3.22076 3.69891,-4.68622 10.23875,-5.82439 3.14911,-0.54807 3.75139,-1.02828 3.5,-2.79063 -0.18661,-1.30814 -0.9782,-2.08046 -2.05365,-2.00364 -0.9625,0.0688 -11.65,0.18125 -23.75,0.25 -21.05858,0.11965 -22,0.20796 -22,2.06373 0,1.5334 0.94837,2.08094 4.53613,2.61896 9.46954,1.42004 10.46387,4.8368 10.46387,35.95636 0,16.77642 -0.28827,21.48031 -1.37149,22.3793 -0.97153,0.80629 -9.64745,1.06072 -29.75,0.87244 L 547.5,161.5 l -0.29965,-24 c -0.19072,-15.27555 0.0969,-25.36466 0.79135,-27.75404 1.27116,-4.37393 3.85037,-6.28694 9.7583,-7.23776 3.27973,-0.52784 4.25,-1.12053 4.25,-2.5961 0,-1.8217 -1.06373,-1.91919 -22.5,-2.0621 -12.375,-0.0825 -23.0625,-0.195 -23.75,-0.25 -0.6875,-0.055 -1.38805,0.86863 -1.55678,2.05251 -0.26138,1.83405 0.33041,2.25512 4,2.8461 5.9808,0.96318 8.53461,2.85975 9.75159,7.24193 1.12649,4.05636 1.50751,100.89058 0.4228,107.45119 -0.87083,5.26698 -3.50085,7.6244 -9.37545,8.4037 -4.39978,0.58365 -4.99216,0.9436 -4.99216,3.0334 V 231 h 24 24 z M 752.28899,228 c -0.11606,-1.375 -0.33748,-9.83188 -0.49205,-18.79307 l -0.28103,-16.29306 -2.44662,0.29306 c -2.20667,0.26433 -2.56405,0.9933 -3.64403,7.43287 -1.66218,9.91104 -3.16363,13.99263 -6.57772,17.88106 -5.0657,5.76952 -10.03702,6.97914 -28.68293,6.97914 H 693.82923 L 691.41461,222.69424 689,219.88847 v -26.54076 -26.54077 l 9.42129,0.34653 c 8.41523,0.30953 9.70645,0.61349 12.09182,2.84653 3.75395,3.51423 4.56993,5.36103 5.92683,13.41409 1.09732,6.51251 1.39082,7.08591 3.627,7.08591 2.15376,0 2.42732,-0.43048 2.38306,-3.75 -0.0275,-2.0625 -0.14,-14.1 -0.25,-26.75 L 722,137 h -2.45469 c -2.06355,0 -2.54996,0.59753 -3.05265,3.75 -1.26228,7.91612 -2.68248,12.70783 -4.53929,15.31549 C 709.29125,159.80409 703.19563,162 695.47976,162 H 689 v -26.88922 c 0,-30.33839 0.0148,-30.40198 7.5,-32.13628 5.35121,-1.23986 21.91921,-1.2196 28.61351,0.035 9.40357,1.76234 13.93776,6.83681 15.8267,17.71254 2.01143,11.58101 1.8884,11.27797 4.57884,11.27797 H 748 v -13.875 c 0,-7.63125 0.28125,-15.28125 0.625,-17 l 0.625,-3.125 h -47.125 c -45.53273,0 -47.125,0.0638 -47.125,1.88871 0,1.39995 0.97043,2.05741 3.75,2.54062 6.48362,1.12714 9.0648,2.60064 10.1851,5.81433 1.52868,4.38519 1.4638,107.31361 -0.0704,111.71469 C 667.61185,223.55221 663.22301,226 658.03212,226 655.75855,226 655,226.45865 655,227.83333 c 0,1.00834 0.30427,2.13761 0.67616,2.5095 0.37189,0.37189 22.30939,0.55939 48.75,0.41667 L 752.5,230.5 Z m 65.58533,-3.25 c 1.12055,-3.4375 7.49398,-23.8 14.16317,-45.25 6.66919,-21.45 12.42656,-39.31426 12.79415,-39.69835 0.3676,-0.38409 7.64336,19.8017 16.16836,44.85732 8.525,25.05562 16.0974,45.79391 16.8275,46.08509 0.7302,0.29119 1.9122,-0.0946 2.6267,-0.85732 0.7145,-0.76271 9.0707,-26.35249 18.5694,-56.86618 9.4986,-30.51369 17.8624,-56.89687 18.5863,-58.62928 1.957,-4.68373 6.3594,-9.48051 10.1577,-11.06753 2.5845,-1.07987 3.2883,-1.91481 3.0467,-3.61403 -0.2526,-1.77613 -0.952,-2.19882 -3.5643,-2.15416 -1.7875,0.0305 -10,0.14305 -18.25,0.25 -14.0357,0.18194 -15,0.31736 -15,2.10654 0,1.4721 0.978,2.0746 4.25,2.61825 9.4637,1.57241 12.3643,5.16918 11.349,14.0728 -0.4426,3.88086 -21.0271,71.18989 -24.2813,79.39685 -0.3666,0.9247 -1.2687,-0.60945 -2.3521,-4 -0.9666,-3.025 -7.2042,-22.34068 -13.8615,-42.92374 C 862.44684,128.49321 857,110.41285 857,108.89769 c 0,-3.7674 2.07403,-5.53175 7.45046,-6.33799 3.8058,-0.57072 4.54955,-1.04005 4.5496,-2.87097 7e-5,-2.1849 -0.0367,-2.18858 -21.00284,-2.10255 -11.5516,0.0474 -21.26772,0.35099 -21.59137,0.67464 -1.24836,1.24835 0.78387,4.56998 3.161,5.1666 3.28939,0.82559 5.75814,5.07032 9.53737,16.39842 l 3.11124,9.32585 -10.60773,33.26606 c -9.68797,30.38166 -11.53218,36.84003 -10.11518,35.42303 C 822.56923,196.7641 843,131.09557 843,128.71158 c 0,-3.45761 -5.74553,-19.53363 -8.23122,-23.03102 -1.10212,-1.55069 -3.07597,-3.22705 -4.38632,-3.72525 -1.31035,-0.49819 -2.38226,-1.47945 -2.38202,-2.18056 3.5e-4,-0.99049 4.46021,-1.27475 20.00031,-1.27475 14.52662,0 19.99978,0.31803 19.99956,1.1621 -1.7e-4,0.63916 -1.91281,1.47892 -4.25031,1.86613 -6.85086,1.13487 -7.75,1.95831 -7.75,7.09747 0,5.03861 26.3601,88.32614 28.3513,89.57894 0.616,0.38756 1.4119,0.16256 1.7688,-0.5 0.7431,-1.37957 22.1919,-69.14141 23.8047,-75.20464 0.5852,-2.2 1.0666,-6.33741 1.0696,-9.19424 0.01,-6.89537 -2.6712,-10.12994 -9.4352,-11.39359 -4.8725,-0.9103 -6.2863,-1.51843 -5.4572,-2.34747 0.6546,-0.65465 32.8704,-0.92559 33.5142,-0.28186 0.3065,0.30654 -0.7192,1.35027 -2.2794,2.3194 -4.2252,2.62447 -8.3464,6.57451 -9.8398,9.43127 -0.7285,1.39344 -7.2389,21.41844 -14.4678,44.5 C 879.7586,229.8366 880.0383,229 878.4682,229 c -0.8075,0 -1.4867,-0.5625 -1.5093,-1.25 -0.023,-0.6875 -6.89812,-21.275 -15.27884,-45.75 -10.27617,-30.01045 -15.69019,-44.5 -16.62743,-44.5 -0.95766,0 -5.81019,14.14657 -15.60732,45.5 -8.96783,28.69948 -14.6872,45.5 -15.48948,45.5 -0.78914,0 -8.44367,-21.25554 -20.16668,-56 -10.39211,-30.8 -19.62352,-57.95541 -20.51423,-60.34535 -1.88475,-5.05715 -6.3285,-9.88028 -9.52319,-10.33621 -1.22721,-0.17514 -2.3599,-0.99344 -2.51708,-1.81844 -0.24688,-1.29584 2.3161,-1.4763 18.8306,-1.32586 10.514,0.0958 19.36419,0.42197 19.66709,0.72487 0.3029,0.3029 -1.59154,1.46901 -4.20987,2.59136 l -4.76061,2.04063 0.45908,5.7345 c 0.47273,5.905 27.73977,90.79186 28.47153,88.63665 0.3218,-0.94777 -3.53898,-13.10719 -24.32306,-76.60477 -1.98484,-6.0639 -3.36585,-12.13177 -3.1863,-14 0.2775,-2.88748 0.85007,-3.48169 4.60596,-4.78001 3.2682,-1.12973 4.22026,-1.93763 4,-3.3943 -0.27305,-1.80571 -1.41149,-1.91753 -20.53922,-2.01737 L 759.9997,97.5 l 1.5e-4,2.27475 c 10e-5,1.56097 0.86248,2.60261 2.74832,3.3196 3.56587,1.35574 6.08359,3.67963 7.99855,7.38275 0.84807,1.64 10.26241,28.86606 20.92074,60.50236 10.65833,31.6363 19.57925,58.08304 19.82427,58.77054 0.24503,0.6875 1.32293,1.25 2.39535,1.25 1.50784,0 2.41172,-1.41684 3.98724,-6.25 z M 230.52617,192.63994 c 14.48114,-6.7434 36.23724,-22.53156 49.964,-36.25832 15.14364,-15.14364 25.86181,-33.04349 31.06597,-51.88162 2.51626,-9.1084 3.11692,-32.2926 1.0496,-40.51201 -5.11024,-20.31769 -21.87435,-36.87614 -41.40496,-40.89701 -16.31673,-3.35921 -33.71463,0.55047 -46.3847,10.42365 l -4.68391,3.64995 -5.31609,-3.96972 C 204.26945,25.3193 194.34201,22.04101 180.9601,22.01478 166.37842,21.98618 154.27999,26.89005 143.37422,37.24947 131.24812,48.76809 126.03633,61.60858 126.02234,80 c -0.0213,27.94649 10.08318,51.68027 31.45163,73.87507 14.2722,14.82413 31.62241,27.95912 49.06824,37.14716 9.28997,4.89267 15.98185,5.34403 23.98396,1.61771 z"
       id="path300"
       sodipodi:nodetypes="ccssscssssscsssssscsssssccccssssssscssscsssscsssccccccsssscccsssscccssssssssssssscsssssssssssscccssscsssscccccsssssscsssscssssscsscssssssssscsssssssssssssssssssssssssscssssssssssssscssssscscssssssssssscssssssscssssssssssssscssscsss" />
    <text
       xml:space="preserve"
       style="font-weight:bold;font-size:240px;font-family:Calibri;-inkscape-font-specification:'Calibri Bold';fill:#ffffff;fill-opacity:1;stroke:none;stroke-width:0.755906"
       x="389.44476"
       y="258.45209"
       id="text1033"><tspan
         sodipodi:role="line"
         id="tspan1031"
         x="389.44476"
         y="258.45209"
         style="font-style:normal;font-variant:normal;font-weight:bold;font-stretch:normal;font-family:'Josefin Sans';-inkscape-font-specification:'Josefin Sans Bold';fill:#ffffff">EHEW</tspan></text>
  </g>
</svg>
